<?xml version="1.0" encoding="UTF-8"?>
<svg id="Layer_1" data-name="Layer 1" xmlns="http://www.w3.org/2000/svg" viewBox="0 0 1024 1024">
  <defs>
    <style>
      .cls-1 {
        fill: #fff;
      }

      .cls-2 {
        fill: #333;
      }

      .cls-3 {
        fill: #3a54a3;
      }
    </style>
  </defs>
  <path class="cls-2" d="M855.24,505.99c3.49,2.89,7.47,4.67,11.94,5.34,4.46,.67,8.81,.07,13.03-1.8,1.73-.76,3.17-1.53,4.32-2.31,1.15-.78,2.13-1.55,2.93-2.33,.81-.77,1.48-1.59,2.02-2.44,.54-.85,1.04-1.72,1.49-2.61,1.38-2.6,3.02-4.47,4.92-5.61,1.9-1.15,3.91-1.76,6.01-1.85,1.41-.09,2.8,.1,4.15,.57,1.36,.47,2.64,1.13,3.85,1.97,1.21,.84,2.28,1.86,3.19,3.07,.91,1.2,1.58,2.54,1.99,4,.42,1.46,.57,3.02,.46,4.67-.11,1.66-.63,3.34-1.56,5.05-.8,1.66-1.81,3.36-3.02,5.12-1.21,1.76-2.74,3.53-4.6,5.3-1.85,1.78-4.08,3.52-6.69,5.25-2.6,1.72-5.73,3.39-9.38,5-6.34,2.8-12.82,4.23-19.45,4.28-6.63,.06-12.95-1.05-18.96-3.33-6.02-2.28-11.46-5.65-16.34-10.11-4.88-4.46-8.71-9.86-11.51-16.2-2.8-6.34-4.21-12.82-4.24-19.47-.03-6.64,1.14-12.95,3.51-18.93,2.37-5.98,5.81-11.4,10.32-16.26,4.51-4.86,9.93-8.69,16.27-11.48,6.21-2.74,12.61-4.17,19.21-4.3,6.6-.12,12.88,.95,18.85,3.2,5.97,2.26,11.39,5.58,16.27,9.97,4.88,4.38,8.77,9.68,11.67,15.9,1.5,3.39,1.62,6.61,.36,9.65-1.26,3.04-3.61,5.32-7.07,6.85l-53.95,23.83Zm32.45-37.96c-3.53-3.49-7.73-5.69-12.61-6.59-4.87-.91-9.81-.26-14.8,1.95-2.43,1.07-4.58,2.44-6.44,4.11-1.87,1.67-3.4,3.51-4.61,5.54-1.21,2.03-2.1,4.2-2.68,6.52-.58,2.32-.82,4.65-.71,6.97l41.86-18.48Z"/>
  <path class="cls-2" d="M390.36,436.52c2.94,0,5.51,.88,7.71,2.62,2.2,1.75,3.69,3.95,4.46,6.61,3.5-2.87,7.22-5.11,11.14-6.72,3.92-1.61,7.99-2.41,12.19-2.41,6.17,0,11.81,1.26,16.92,3.78,5.12,2.52,9.51,5.97,13.19,10.34,3.68,4.37,6.53,9.52,8.57,15.43,2.03,5.91,3.08,12.23,3.15,18.94v37.89c0,1.82-.35,3.5-1.05,5.04-.7,1.54-1.63,2.87-2.79,3.99-1.16,1.12-2.55,2.01-4.16,2.68-1.62,.67-3.3,1-5.06,1s-3.43-.33-5.01-1c-1.58-.66-2.95-1.56-4.11-2.68-1.16-1.12-2.09-2.45-2.79-3.99-.7-1.54-1.05-3.22-1.05-5.04v-37.78c-.07-3.22-.54-6.21-1.42-8.97-.88-2.76-2.12-5.16-3.73-7.19-1.61-2.03-3.57-3.64-5.88-4.83-2.31-1.19-4.9-1.78-7.77-1.78s-5.49,.52-7.87,1.57c-2.38,1.05-4.44,2.52-6.19,4.41-1.75,1.89-3.13,4.13-4.15,6.72-1.02,2.59-1.56,5.42-1.63,8.5v38.94c0,1.82-.33,3.5-1,5.04-.67,1.54-1.59,2.9-2.78,4.09-1.19,1.19-2.57,2.12-4.15,2.78-1.58,.67-3.24,1-4.99,1s-3.52-.33-5.09-1c-1.57-.66-2.96-1.59-4.15-2.78-1.19-1.19-2.14-2.55-2.83-4.09-.7-1.54-1.05-3.22-1.05-5.04v-73.15c0-1.75,.35-3.41,1.05-4.99,.7-1.57,1.64-2.95,2.83-4.15,1.19-1.19,2.61-2.11,4.25-2.78,1.64-.67,3.37-1,5.19-1Z"/>
  <path class="cls-2" d="M487.7,408.4c.73-1.68,1.73-3.15,2.99-4.41,1.26-1.26,2.75-2.26,4.46-2.99,1.71-.73,3.52-1.1,5.4-1.1s3.69,.37,5.4,1.1c1.71,.73,3.22,1.73,4.51,2.99,1.29,1.26,2.31,2.73,3.04,4.41s1.1,3.5,1.1,5.46-.37,3.69-1.1,5.4c-.73,1.72-1.75,3.2-3.04,4.46-1.3,1.26-2.8,2.26-4.51,2.99-1.71,.73-3.52,1.1-5.4,1.1s-3.69-.37-5.4-1.1c-1.71-.73-3.2-1.73-4.46-2.99-1.26-1.26-2.26-2.74-2.99-4.46-.73-1.71-1.1-3.52-1.1-5.4s.37-3.78,1.1-5.46Zm25.97,114.18c0,1.82-.33,3.5-1,5.04-.67,1.54-1.59,2.9-2.78,4.09-1.19,1.19-2.57,2.12-4.15,2.78-1.58,.67-3.24,1-4.99,1s-3.52-.33-5.09-1c-1.57-.66-2.96-1.59-4.15-2.78-1.19-1.19-2.14-2.55-2.83-4.09-.7-1.54-1.05-3.22-1.05-5.04v-73.15c0-1.75,.35-3.41,1.05-4.99,.7-1.57,1.64-2.95,2.83-4.15s2.61-2.11,4.25-2.78c1.64-.67,3.37-1,5.19-1s3.41,.33,4.99,1c1.57,.67,2.92,1.59,4.04,2.78,1.12,1.19,2.01,2.57,2.68,4.15,.67,1.58,1,3.24,1,4.99v73.15Z"/>
  <path class="cls-2" d="M569.82,436.84h5.77c1.82,0,3.53,.33,5.14,1,1.61,.67,2.99,1.57,4.15,2.73,1.15,1.15,2.06,2.52,2.73,4.09,.66,1.57,1,3.27,1,5.09s-.33,3.52-1,5.09c-.67,1.58-1.58,2.96-2.73,4.15-1.15,1.19-2.54,2.13-4.15,2.83s-3.32,1.05-5.14,1.05h-5.77v59.82c0,1.82-.33,3.5-1,5.04-.67,1.54-1.59,2.89-2.78,4.04-1.19,1.15-2.57,2.06-4.15,2.73-1.58,.67-3.27,1-5.09,1s-3.52-.33-5.09-1c-1.57-.66-2.96-1.57-4.15-2.73-1.19-1.15-2.12-2.5-2.78-4.04-.67-1.54-1-3.22-1-5.04v-59.82h-4.93c-1.82,0-3.52-.35-5.09-1.05-1.58-.7-2.96-1.64-4.15-2.83-1.19-1.19-2.12-2.57-2.78-4.15-.67-1.57-1-3.27-1-5.09s.33-3.52,1-5.09c.66-1.57,1.59-2.94,2.78-4.09s2.57-2.06,4.15-2.73c1.57-.66,3.27-1,5.09-1h4.93v-22.88c0-1.82,.33-3.5,1-5.04,.66-1.54,1.59-2.89,2.78-4.04,1.19-1.15,2.57-2.06,4.15-2.73,1.58-.66,3.27-1,5.09-1s3.52,.33,5.09,1c1.57,.67,2.95,1.58,4.15,2.73,1.19,1.15,2.11,2.5,2.78,4.04,.66,1.54,1,3.22,1,5.04v22.88Z"/>
  <path class="cls-2" d="M600.62,408.4c.73-1.68,1.73-3.15,2.99-4.41,1.26-1.26,2.75-2.26,4.46-2.99,1.71-.73,3.52-1.1,5.4-1.1s3.69,.37,5.4,1.1c1.71,.73,3.22,1.73,4.51,2.99,1.29,1.26,2.31,2.73,3.04,4.41s1.1,3.5,1.1,5.46-.37,3.69-1.1,5.4c-.73,1.72-1.75,3.2-3.04,4.46-1.3,1.26-2.8,2.26-4.51,2.99-1.71,.73-3.52,1.1-5.4,1.1s-3.69-.37-5.4-1.1c-1.71-.73-3.2-1.73-4.46-2.99-1.26-1.26-2.26-2.74-2.99-4.46-.73-1.71-1.1-3.52-1.1-5.4s.37-3.78,1.1-5.46Z"/>
  <path class="cls-2" d="M626.59,522.58c0,1.82-.33,3.5-1,5.04-.67,1.54-1.59,2.9-2.78,4.09-1.19,1.19-2.57,2.12-4.15,2.78-1.58,.67-3.24,1-4.99,1s-3.52-.33-5.09-1c-1.57-.66-2.96-1.59-4.15-2.78-1.19-1.19-2.14-2.55-2.83-4.09-.7-1.54-1.05-3.22-1.05-5.04v-73.15c0-1.75,.35-3.41,1.05-4.99,.7-1.57,1.64-2.95,2.83-4.15,1.19-1.19,2.61-2.11,4.25-2.78,1.64-.67,3.37-1,5.19-1s3.41,.33,4.99,1,2.92,1.59,4.04,2.78c1.12,1.19,2.01,2.57,2.68,4.15,.67,1.58,1,3.24,1,4.99v73.15Z"/>
  <path class="cls-2" d="M354.53,518.75c0,2.49-.33,4.78-1,6.88-.67,2.1-1.59,3.97-2.78,5.59-1.19,1.63-2.57,2.89-4.15,3.8-1.58,.91-3.24,1.36-4.99,1.36s-3.52-.45-5.09-1.36c-1.57-.91-2.96-2.17-4.15-3.8-1.19-1.63-2.14-3.49-2.83-5.59-.7-2.1-1.05-4.4-1.05-6.88v-99.95c0-2.39,.35-4.66,1.05-6.81,.7-2.15,1.64-4.04,2.83-5.66,1.19-1.62,2.61-2.89,4.25-3.8,1.64-.91,3.37-1.36,5.19-1.36s3.41,.45,4.99,1.36,2.92,2.17,4.04,3.8c1.12,1.63,2.01,3.51,2.68,5.66,.67,2.15,1,4.42,1,6.81v99.95Z"/>
  <path class="cls-2" d="M641.6,486.69c0-6.93,1.33-13.41,3.99-19.47,2.66-6.05,6.26-11.35,10.81-15.9,4.55-4.55,9.85-8.13,15.9-10.76,6.05-2.62,12.5-3.93,19.36-3.93s13.19,1.3,19.2,3.88c6.02,2.59,11.28,6.1,15.79,10.55,4.51,4.44,8.1,9.67,10.76,15.69,2.66,6.02,4.06,12.42,4.2,19.2v36.21c0,1.82-.35,3.55-1.05,5.2-.7,1.64-1.64,3.06-2.83,4.25s-2.59,2.14-4.2,2.83c-1.61,.7-3.36,1.05-5.25,1.05-2.66,0-4.97-.65-6.93-1.94-1.96-1.29-3.43-2.99-4.41-5.09-3.78,2.52-7.78,4.51-12.02,5.98-4.23,1.47-8.66,2.2-13.28,2.2-6.86,0-13.31-1.31-19.36-3.94-6.05-2.62-11.35-6.19-15.9-10.7s-8.15-9.81-10.81-15.9c-2.66-6.09-3.99-12.56-3.99-19.42Zm26.03,.05c0,3.3,.63,6.4,1.89,9.31,1.26,2.91,2.98,5.45,5.15,7.62,2.17,2.17,4.72,3.88,7.62,5.1,2.91,1.23,6.01,1.84,9.31,1.84s6.5-.61,9.41-1.84c2.91-1.23,5.43-2.93,7.57-5.1,2.14-2.17,3.84-4.72,5.1-7.62,1.26-2.91,1.89-6.01,1.89-9.31s-.63-6.49-1.89-9.36c-1.26-2.87-2.96-5.4-5.1-7.57-2.14-2.17-4.66-3.88-7.57-5.1s-6.05-1.84-9.41-1.84-6.4,.61-9.31,1.84c-2.91,1.23-5.45,2.93-7.62,5.1-2.17,2.17-3.89,4.7-5.15,7.57-1.26,2.88-1.89,6-1.89,9.36Z"/>
  <path class="cls-2" d="M797.66,436.84h5.77c1.82,0,3.53,.33,5.14,1,1.61,.67,2.99,1.57,4.15,2.73,1.15,1.15,2.06,2.52,2.73,4.09,.66,1.57,1,3.27,1,5.09s-.33,3.52-1,5.09c-.67,1.58-1.58,2.96-2.73,4.15-1.15,1.19-2.54,2.13-4.15,2.83s-3.32,1.05-5.14,1.05h-5.77v59.82c0,1.82-.33,3.5-1,5.04-.67,1.54-1.59,2.89-2.78,4.04-1.19,1.15-2.57,2.06-4.15,2.73-1.58,.67-3.27,1-5.09,1s-3.52-.33-5.09-1c-1.57-.66-2.96-1.57-4.15-2.73-1.19-1.15-2.12-2.5-2.78-4.04-.67-1.54-1-3.22-1-5.04v-59.82h-4.93c-1.82,0-3.52-.35-5.09-1.05-1.58-.7-2.96-1.64-4.15-2.83-1.19-1.19-2.12-2.57-2.78-4.15-.67-1.57-1-3.27-1-5.09s.33-3.52,1-5.09c.66-1.57,1.59-2.94,2.78-4.09s2.57-2.06,4.15-2.73c1.57-.66,3.27-1,5.09-1h4.93v-22.88c0-1.82,.33-3.5,1-5.04,.66-1.54,1.59-2.89,2.78-4.04,1.19-1.15,2.57-2.06,4.15-2.73,1.58-.66,3.27-1,5.09-1s3.52,.33,5.09,1c1.57,.67,2.95,1.58,4.15,2.73,1.19,1.15,2.11,2.5,2.78,4.04,.66,1.54,1,3.22,1,5.04v22.88Z"/>
  <path class="cls-3" d="M687.09,591.66v-31.56h9.06l5.47,18.81c.18,.52,.35,1.13,.51,1.84,.15,.71,.31,1.4,.46,2.07,.15,.67,.32,1.47,.51,2.39h.23c.18-.95,.34-1.78,.48-2.48,.14-.71,.28-1.4,.41-2.09,.14-.69,.27-1.27,.39-1.73l5.52-18.81h8.74v31.56h-5.89v-20.38c0-.28,.01-.71,.05-1.29,.03-.58,.05-1.19,.07-1.82,.01-.63,.05-1.37,.11-2.23h-.28c-.09,.28-.18,.61-.25,1.01-.08,.4-.18,.8-.3,1.22-.12,.41-.25,.84-.37,1.27l-6.49,22.22h-5.43l-6.44-22.22c-.12-.4-.25-.81-.37-1.24-.12-.43-.22-.84-.3-1.24-.08-.4-.16-.74-.25-1.01h-.23c.06,.86,.1,1.59,.11,2.21s.03,1.21,.05,1.79c.01,.58,.02,1.03,.02,1.33v20.38h-5.61Z"/>
  <path class="cls-3" d="M725.36,563.7v-5.29h5.52v5.29h-5.52Zm0,27.97v-24.2h5.52v24.2h-5.52Z"/>
  <path class="cls-3" d="M737.28,591.66v-24.2h4.55l.46,3.22h.32c.83-1.1,1.89-2.01,3.2-2.71,1.3-.71,2.83-1.06,4.58-1.06,1.53,0,2.89,.28,4.07,.83,1.18,.55,2.1,1.44,2.76,2.67,.66,1.23,.99,2.87,.99,4.92v16.33h-5.52v-15.36c0-1.75-.4-2.95-1.2-3.61s-1.89-.99-3.27-.99c-1.01,0-1.93,.25-2.76,.76s-1.48,1.2-1.96,2.07c-.48,.87-.71,1.89-.71,3.06v14.08h-5.52Z"/>
  <path class="cls-3" d="M772.61,592.22c-2.98,0-5.33-1.01-7.06-3.04-1.73-2.02-2.6-5.24-2.6-9.66,0-2.88,.4-5.26,1.2-7.13,.8-1.87,1.9-3.25,3.31-4.14,1.41-.89,3-1.33,4.78-1.33,1.66,0,3.1,.28,4.32,.85,1.23,.57,2.21,1.4,2.94,2.51h.28v-11.87h5.52v33.26h-4.55l-.46-3.22h-.28c-.8,1.26-1.85,2.2-3.15,2.83-1.3,.63-2.72,.94-4.25,.94Zm1.66-4.74c1.96,0,3.37-.65,4.23-1.96,.86-1.3,1.29-3.18,1.29-5.64v-.55c0-2.45-.44-4.35-1.31-5.68s-2.28-2-4.21-2c-2.05,0-3.5,.62-4.35,1.86-.84,1.24-1.26,3.17-1.26,5.77v.6c0,2.61,.42,4.52,1.26,5.75,.84,1.23,2.29,1.84,4.35,1.84Z"/>
  <path class="cls-3" d="M812.17,591.66v-26.5h-10.17v-5.06h26.17v5.06h-10.17v26.5h-5.84Z"/>
  <path class="cls-3" d="M837.24,592.22c-1.53,0-2.89-.28-4.07-.83-1.18-.55-2.1-1.44-2.76-2.67-.66-1.23-.99-2.87-.99-4.92v-16.33h5.52v15.36c0,1.75,.4,2.95,1.2,3.61,.8,.66,1.89,.99,3.27,.99,1.01,0,1.92-.25,2.74-.76s1.46-1.2,1.96-2.07c.49-.87,.74-1.89,.74-3.06v-14.08h5.52v24.2h-4.55l-.46-3.22h-.32c-.86,1.1-1.93,2.01-3.22,2.71s-2.81,1.06-4.55,1.06Z"/>
  <path class="cls-3" d="M856.79,591.66v-24.2h4.55l.51,3.82h.32c.43-1.17,1.06-2.19,1.89-3.06,.83-.87,2.01-1.31,3.54-1.31,.67,0,1.44,.14,2.3,.41v5.2h-1.75c-1.26,0-2.32,.23-3.2,.69s-1.53,1.18-1.98,2.16c-.45,.98-.67,2.21-.67,3.68v12.6h-5.52Z"/>
  <path class="cls-3" d="M873.81,591.66v-24.2h4.55l.51,3.82h.32c.43-1.17,1.06-2.19,1.89-3.06,.83-.87,2.01-1.31,3.54-1.31,.67,0,1.44,.14,2.3,.41v5.2h-1.75c-1.26,0-2.32,.23-3.2,.69s-1.53,1.18-1.98,2.16c-.45,.98-.67,2.21-.67,3.68v12.6h-5.52Z"/>
  <path class="cls-3" d="M890.83,591.66v-24.2h4.55l.46,3.22h.32c.83-1.1,1.89-2.01,3.2-2.71,1.3-.71,2.83-1.06,4.58-1.06,1.53,0,2.89,.28,4.07,.83,1.18,.55,2.1,1.44,2.76,2.67,.66,1.23,.99,2.87,.99,4.92v16.33h-5.52v-15.36c0-1.75-.4-2.95-1.2-3.61s-1.89-.99-3.27-.99c-1.01,0-1.93,.25-2.76,.76s-1.48,1.2-1.96,2.07c-.48,.87-.71,1.89-.71,3.06v14.08h-5.52Z"/>
  <ellipse class="cls-3" cx="224.44" cy="469.06" rx="79.41" ry="83.65"/>
  <g>
    <path class="cls-1" d="M218.43,485.83c6.84,38.93,12.86,41.95,15.25,41.96,6.88,.03,14.52-24.74,12.43-47.13-1.01-10.82-1.89-20.24-8.49-25.01-20.07-14.52-77.75,25.04-74.04,34.43,1.63,4.14,15.89,4.28,54.86-4.25Z"/>
    <path class="cls-1" d="M267.29,433.34c.08,10.19-8.25,18.52-18.6,18.6-10.36,.08-18.82-8.11-18.9-18.31-.08-10.19,8.25-18.52,18.6-18.6,10.35-.08,18.81,8.11,18.9,18.31Z"/>
  </g>
</svg>