<svg id="Layer_1" data-name="Layer 1" xmlns="http://www.w3.org/2000/svg" viewBox="0 0 770.52 206.25"><defs><style>.cls-1{fill:#333;}.cls-2{fill:#3a54a3;}.cls-3{fill:#fff;}</style></defs><path class="cls-1" d="M710.22,120.57a24,24,0,0,0,11.93,5.34,23.09,23.09,0,0,0,13-1.8,28.25,28.25,0,0,0,4.32-2.3,21.42,21.42,0,0,0,2.93-2.33,13,13,0,0,0,2-2.44c.54-.85,1-1.72,1.49-2.61a13.88,13.88,0,0,1,4.92-5.61,12.46,12.46,0,0,1,6-1.85,10.5,10.5,0,0,1,4.15.57,16.11,16.11,0,0,1,3.85,2,13.66,13.66,0,0,1,3.19,3.07,11.89,11.89,0,0,1,2,4,13.82,13.82,0,0,1,.46,4.68,12.39,12.39,0,0,1-1.56,5,39,39,0,0,1-3,5.12,33.91,33.91,0,0,1-4.6,5.3,46.67,46.67,0,0,1-6.69,5.25,63.6,63.6,0,0,1-9.38,5,48.72,48.72,0,0,1-19.44,4.29,51.75,51.75,0,0,1-19-3.33,50.4,50.4,0,0,1-16.33-10.11,49.57,49.57,0,0,1-15.75-35.66,50.28,50.28,0,0,1,3.51-18.93A52,52,0,0,1,688.6,67a50.44,50.44,0,0,1,35.48-15.78,50,50,0,0,1,18.86,3.2,51.47,51.47,0,0,1,16.27,10,49,49,0,0,1,11.67,15.9,11.83,11.83,0,0,1,.36,9.65,12.79,12.79,0,0,1-7.07,6.85Zm32.45-38A23.74,23.74,0,0,0,730.06,76,24.77,24.77,0,0,0,715.26,78a24.09,24.09,0,0,0-6.44,4.11,23.61,23.61,0,0,0-4.62,5.53,24.45,24.45,0,0,0-3.39,13.49Z"/><path class="cls-1" d="M245.34,51.11a12,12,0,0,1,7.71,2.62,12.77,12.77,0,0,1,4.46,6.61,43.77,43.77,0,0,1,11.14-6.72,32,32,0,0,1,12.2-2.41A37.79,37.79,0,0,1,297.77,55,40.25,40.25,0,0,1,311,65.33a47.75,47.75,0,0,1,8.57,15.42,60,60,0,0,1,3.15,19v37.88a12,12,0,0,1-1.05,5,13.24,13.24,0,0,1-12,7.66,12.7,12.7,0,0,1-5-1,13.14,13.14,0,0,1-4.11-2.67,12.91,12.91,0,0,1-2.79-4,12,12,0,0,1-1-5V99.8a31.67,31.67,0,0,0-1.42-9,22.37,22.37,0,0,0-3.72-7.19,18,18,0,0,0-5.88-4.83A16.71,16.71,0,0,0,277.87,77,19.27,19.27,0,0,0,270,78.6,18.54,18.54,0,0,0,263.81,83a21.2,21.2,0,0,0-4.15,6.72,24.76,24.76,0,0,0-1.62,8.5v38.93a12.66,12.66,0,0,1-1,5,13.12,13.12,0,0,1-2.78,4.09,12.77,12.77,0,0,1-4.15,2.78,12.55,12.55,0,0,1-5,1,12.93,12.93,0,0,1-9.24-3.78,13.81,13.81,0,0,1-2.83-4.09,12,12,0,0,1-1.05-5V64a12.13,12.13,0,0,1,1.05-5,13.58,13.58,0,0,1,2.83-4.15,12.74,12.74,0,0,1,4.25-2.78A13.86,13.86,0,0,1,245.34,51.11Z"/><path class="cls-1" d="M342.67,23a14.51,14.51,0,0,1,3-4.41,14.14,14.14,0,0,1,4.47-3,13.8,13.8,0,0,1,10.8,0,14.84,14.84,0,0,1,4.52,3,13.8,13.8,0,0,1,3,4.41,14,14,0,0,1,0,10.86,13.59,13.59,0,0,1-3,4.46,14.66,14.66,0,0,1-4.52,3,13.8,13.8,0,0,1-10.8,0,14,14,0,0,1-4.47-3,14.26,14.26,0,0,1-3-4.46,14,14,0,0,1,0-10.86Zm26,114.18a12.49,12.49,0,0,1-1,5,13.06,13.06,0,0,1-6.92,6.87,12.64,12.64,0,0,1-5,1,12.93,12.93,0,0,1-9.24-3.78,13.81,13.81,0,0,1-2.83-4.09,12,12,0,0,1-1.05-5V64a12.13,12.13,0,0,1,1.05-5,13.58,13.58,0,0,1,2.83-4.15,12.74,12.74,0,0,1,4.25-2.78,13.86,13.86,0,0,1,5.2-1,12.72,12.72,0,0,1,5,1A11.8,11.8,0,0,1,365,54.88,13.88,13.88,0,0,1,367.65,59a12.59,12.59,0,0,1,1,5Z"/><path class="cls-1" d="M424.79,51.42h5.78a13.23,13.23,0,0,1,5.14,1,12.37,12.37,0,0,1,6.87,6.82,13.45,13.45,0,0,1,0,10.18,13.35,13.35,0,0,1-2.72,4.14,12.92,12.92,0,0,1-4.15,2.84,12.74,12.74,0,0,1-5.14,1h-5.78v59.82a12.37,12.37,0,0,1-3.77,9.07,13.13,13.13,0,0,1-4.15,2.73,13.45,13.45,0,0,1-10.18,0,13.09,13.09,0,0,1-4.14-2.73,12.43,12.43,0,0,1-3.78-9.07V77.45h-4.93a12.37,12.37,0,0,1-5.09-1,13.61,13.61,0,0,1-4.15-2.84,13.25,13.25,0,0,1-2.78-14.32,12.11,12.11,0,0,1,2.78-4.09,13.13,13.13,0,0,1,4.15-2.73,12.84,12.84,0,0,1,5.09-1h4.93V28.54a12.43,12.43,0,0,1,3.78-9.08,13.43,13.43,0,0,1,4.14-2.73,13.58,13.58,0,0,1,10.18,0A13.48,13.48,0,0,1,421,19.46a12.37,12.37,0,0,1,3.77,9.08Z"/><path class="cls-1" d="M455.6,23a14,14,0,0,1,7.45-7.4,13.83,13.83,0,0,1,10.81,0,14.91,14.91,0,0,1,4.51,3,13.8,13.8,0,0,1,3,4.41,13.84,13.84,0,0,1,0,10.86,13.59,13.59,0,0,1-3,4.46,14.73,14.73,0,0,1-4.51,3,13.83,13.83,0,0,1-10.81,0,13.87,13.87,0,0,1-7.45-7.45,13.84,13.84,0,0,1,0-10.86Z"/><path class="cls-1" d="M481.57,137.16a12.49,12.49,0,0,1-1,5,13.06,13.06,0,0,1-6.92,6.87,12.64,12.64,0,0,1-5,1,12.89,12.89,0,0,1-9.23-3.78,13.84,13.84,0,0,1-2.84-4.09,12,12,0,0,1-1-5V64a12.13,12.13,0,0,1,1-5,13.61,13.61,0,0,1,2.84-4.15,12.64,12.64,0,0,1,4.25-2.78,13.77,13.77,0,0,1,5.19-1,12.8,12.8,0,0,1,5,1,11.86,11.86,0,0,1,4,2.78A13.69,13.69,0,0,1,480.57,59a12.59,12.59,0,0,1,1,5Z"/><path class="cls-1" d="M209.5,133.33a22.83,22.83,0,0,1-1,6.88,19.55,19.55,0,0,1-2.78,5.6,13.78,13.78,0,0,1-4.15,3.8,9.8,9.8,0,0,1-5,1.36,10,10,0,0,1-5.1-1.36,13.63,13.63,0,0,1-4.14-3.8,19.91,19.91,0,0,1-2.83-5.6,21.63,21.63,0,0,1-1.05-6.88v-100a22,22,0,0,1,1.05-6.82,19.75,19.75,0,0,1,2.83-5.66,13.22,13.22,0,0,1,4.25-3.8,10.54,10.54,0,0,1,5.19-1.36,9.81,9.81,0,0,1,5,1.36,12.57,12.57,0,0,1,4,3.8,20.87,20.87,0,0,1,2.68,5.66,23.19,23.19,0,0,1,1,6.82Z"/><path class="cls-1" d="M496.58,101.27a47.83,47.83,0,0,1,4-19.47,51.63,51.63,0,0,1,10.8-15.9,51,51,0,0,1,15.9-10.75,49.51,49.51,0,0,1,38.57-.06,51.17,51.17,0,0,1,15.8,10.55,50.29,50.29,0,0,1,10.75,15.69,49.56,49.56,0,0,1,4.2,19.2v36.21a13.17,13.17,0,0,1-1.05,5.2,13.11,13.11,0,0,1-7,7.08,13,13,0,0,1-5.25,1,12.1,12.1,0,0,1-11.33-7,52.69,52.69,0,0,1-12,6,40.12,40.12,0,0,1-13.27,2.2,48.26,48.26,0,0,1-19.37-3.93,50.64,50.64,0,0,1-26.7-26.61A47.89,47.89,0,0,1,496.58,101.27Zm26,0a23,23,0,0,0,1.9,9.31,24.51,24.51,0,0,0,5.15,7.63,23.84,23.84,0,0,0,16.93,6.94,24.12,24.12,0,0,0,9.42-1.84,23.18,23.18,0,0,0,7.57-5.1,24.9,24.9,0,0,0,5.1-7.63,23.88,23.88,0,0,0,0-18.67,25,25,0,0,0-5.1-7.57,23.18,23.18,0,0,0-7.57-5.1,23.94,23.94,0,0,0-9.42-1.84,23.6,23.6,0,0,0-9.3,1.84,23.87,23.87,0,0,0-7.63,5.1A24.59,24.59,0,0,0,524.5,92,22.93,22.93,0,0,0,522.6,101.32Z"/><path class="cls-1" d="M652.63,51.42h5.77a13.19,13.19,0,0,1,5.14,1,12.39,12.39,0,0,1,4.15,2.73,12.75,12.75,0,0,1,2.73,4.09,13.45,13.45,0,0,1,0,10.18,13.55,13.55,0,0,1-2.73,4.14,13,13,0,0,1-9.29,3.89h-5.77v59.82a12.43,12.43,0,0,1-3.78,9.07,13.2,13.2,0,0,1-4.14,2.73,13.45,13.45,0,0,1-10.18,0,13.13,13.13,0,0,1-4.15-2.73,12.43,12.43,0,0,1-3.78-9.07V77.45h-4.93a12.4,12.4,0,0,1-5.09-1,13.69,13.69,0,0,1-4.14-2.84,13.29,13.29,0,0,1-2.79-14.32,12.29,12.29,0,0,1,2.79-4.09,13.2,13.2,0,0,1,4.14-2.73,12.88,12.88,0,0,1,5.09-1h4.93V28.54a12.49,12.49,0,0,1,1-5,12.68,12.68,0,0,1,2.78-4,13.48,13.48,0,0,1,4.15-2.73,13.58,13.58,0,0,1,10.18,0,13.55,13.55,0,0,1,4.14,2.73,12.43,12.43,0,0,1,3.78,9.08Z"/><path class="cls-2" d="M542.07,206.25V174.69h9.06l5.47,18.81a14.44,14.44,0,0,1,.51,1.84c.15.71.31,1.4.46,2.08s.32,1.47.51,2.39h.23q.27-1.42.48-2.49c.14-.7.27-1.4.41-2.09s.27-1.27.39-1.73l5.52-18.81h8.74v31.56H568V185.87c0-.28,0-.71,0-1.29s.06-1.19.07-1.82,0-1.37.12-2.23h-.28a7.62,7.62,0,0,0-.25,1c-.08.39-.18.8-.3,1.21s-.25.84-.37,1.27l-6.49,22.22h-5.42L548.65,184c-.13-.4-.25-.81-.37-1.24s-.23-.85-.3-1.24a9.55,9.55,0,0,0-.25-1h-.23c.06.86.09,1.6.11,2.21s0,1.21,0,1.8,0,1,0,1.33v20.38Z"/><path class="cls-2" d="M580.34,178.28V173h5.52v5.29Zm0,28v-24.2h5.52v24.2Z"/><path class="cls-2" d="M592.25,206.25v-24.2h4.56l.46,3.22h.32a9.64,9.64,0,0,1,3.2-2.71,9.41,9.41,0,0,1,4.57-1.06,9.51,9.51,0,0,1,4.07.83,5.94,5.94,0,0,1,2.76,2.67,10.37,10.37,0,0,1,1,4.92v16.33h-5.52V190.88c0-1.75-.4-2.95-1.19-3.61a5,5,0,0,0-3.27-1,5.25,5.25,0,0,0-2.76.76,5.39,5.39,0,0,0-2,2.07,6.29,6.29,0,0,0-.72,3.06v14.08Z"/><path class="cls-2" d="M627.58,206.8a8.8,8.8,0,0,1-7.06-3q-2.6-3-2.6-9.66a18.25,18.25,0,0,1,1.2-7.13,8.35,8.35,0,0,1,8.09-5.47,10.2,10.2,0,0,1,4.33.85,7,7,0,0,1,2.94,2.51h.28V173h5.52v33.26h-4.56l-.46-3.22H635a7.6,7.6,0,0,1-3.15,2.83A9.84,9.84,0,0,1,627.58,206.8Zm1.66-4.74a4.69,4.69,0,0,0,4.23-1.95,10.28,10.28,0,0,0,1.29-5.64v-.55a10.38,10.38,0,0,0-1.31-5.68,4.66,4.66,0,0,0-4.21-2q-3.09,0-4.35,1.86c-.84,1.24-1.26,3.17-1.26,5.77v.6q0,3.92,1.26,5.75T629.24,202.06Z"/><path class="cls-2" d="M667.14,206.25v-26.5H657v-5.06h26.18v5.06H673v26.5Z"/><path class="cls-2" d="M692.21,206.8a9.54,9.54,0,0,1-4.07-.83,5.94,5.94,0,0,1-2.76-2.67,10.37,10.37,0,0,1-1-4.92V182.05h5.52v15.37c0,1.74.4,3,1.2,3.61a4.94,4.94,0,0,0,3.26,1,5.13,5.13,0,0,0,2.74-.75,5.71,5.71,0,0,0,1.95-2.07,6.19,6.19,0,0,0,.74-3.06V182.05h5.52v24.2h-4.55l-.46-3.22H700a10.13,10.13,0,0,1-3.22,2.71A9.25,9.25,0,0,1,692.21,206.8Z"/><path class="cls-2" d="M711.76,206.25v-24.2h4.55l.51,3.82h.32a8.75,8.75,0,0,1,1.89-3.06,4.66,4.66,0,0,1,3.54-1.31,7.83,7.83,0,0,1,2.3.41v5.2h-1.75a6.82,6.82,0,0,0-3.2.69,4.39,4.39,0,0,0-2,2.16,8.87,8.87,0,0,0-.67,3.68v12.61Z"/><path class="cls-2" d="M728.78,206.25v-24.2h4.56l.5,3.82h.32a8.75,8.75,0,0,1,1.89-3.06,4.66,4.66,0,0,1,3.54-1.31,7.83,7.83,0,0,1,2.3.41v5.2h-1.75a6.75,6.75,0,0,0-3.19.69,4.36,4.36,0,0,0-2,2.16,8.87,8.87,0,0,0-.67,3.68v12.61Z"/><path class="cls-2" d="M745.8,206.25v-24.2h4.55l.46,3.22h.33a9.6,9.6,0,0,1,3.19-2.71,9.45,9.45,0,0,1,4.58-1.06,9.54,9.54,0,0,1,4.07.83,5.94,5.94,0,0,1,2.76,2.67,10.37,10.37,0,0,1,1,4.92v16.33h-5.52V190.88c0-1.75-.4-2.95-1.2-3.61a4.94,4.94,0,0,0-3.26-1A5.25,5.25,0,0,0,754,187a5.49,5.49,0,0,0-2,2.07,6.4,6.4,0,0,0-.71,3.06v14.08Z"/><ellipse class="cls-2" cx="79.41" cy="83.65" rx="79.41" ry="83.65"/><path class="cls-3" d="M73.41,100.41c6.84,38.93,12.86,42,15.25,42,6.88,0,14.52-24.73,12.43-47.12-1-10.83-1.9-20.25-8.5-25-20.07-14.51-77.75,25-74,34.44C20.18,108.8,34.44,108.94,73.41,100.41Z"/><path class="cls-3" d="M122.27,47.93a18.75,18.75,0,1,1-18.9-18.31A18.6,18.6,0,0,1,122.27,47.93Z"/></svg>